<svg width="191" height="27" viewBox="0 0 191 27" fill="none" xmlns="http://www.w3.org/2000/svg">
<path d="M0 10C0 4.47715 4.47715 0 10 0H191V17C191 22.5228 186.523 27 181 27H0V10Z" fill="#826644"/>
<path d="M23.006 13.196H29.828V14.006H23.006V13.196ZM23.114 19.172H30.89V20H22.196V7.4H30.62V8.228H23.114V19.172ZM42.0168 20.072C41.1048 20.072 40.2888 19.868 39.5688 19.46C38.8608 19.052 38.2968 18.488 37.8768 17.768C37.4688 17.048 37.2648 16.226 37.2648 15.302C37.2648 14.366 37.4688 13.538 37.8768 12.818C38.2968 12.098 38.8608 11.54 39.5688 11.144C40.2888 10.736 41.1048 10.532 42.0168 10.532C42.7728 10.532 43.4568 10.676 44.0688 10.964C44.6928 11.252 45.1968 11.684 45.5808 12.26L44.9148 12.746C44.5788 12.266 44.1588 11.912 43.6548 11.684C43.1508 11.456 42.6048 11.342 42.0168 11.342C41.2848 11.342 40.6248 11.51 40.0368 11.846C39.4608 12.17 39.0048 12.632 38.6688 13.232C38.3448 13.82 38.1828 14.51 38.1828 15.302C38.1828 16.094 38.3448 16.79 38.6688 17.39C39.0048 17.978 39.4608 18.44 40.0368 18.776C40.6248 19.1 41.2848 19.262 42.0168 19.262C42.6048 19.262 43.1508 19.148 43.6548 18.92C44.1588 18.692 44.5788 18.338 44.9148 17.858L45.5808 18.344C45.1968 18.92 44.6928 19.352 44.0688 19.64C43.4568 19.928 42.7728 20.072 42.0168 20.072ZM56.289 20.072C55.389 20.072 54.585 19.868 53.877 19.46C53.181 19.052 52.623 18.488 52.203 17.768C51.795 17.048 51.591 16.226 51.591 15.302C51.591 14.366 51.795 13.544 52.203 12.836C52.623 12.116 53.181 11.552 53.877 11.144C54.585 10.736 55.389 10.532 56.289 10.532C57.189 10.532 57.993 10.736 58.701 11.144C59.409 11.552 59.967 12.116 60.375 12.836C60.783 13.544 60.987 14.366 60.987 15.302C60.987 16.226 60.783 17.048 60.375 17.768C59.967 18.488 59.409 19.052 58.701 19.46C57.993 19.868 57.189 20.072 56.289 20.072ZM56.289 19.262C57.009 19.262 57.657 19.1 58.233 18.776C58.809 18.44 59.259 17.972 59.583 17.372C59.907 16.772 60.069 16.082 60.069 15.302C60.069 14.51 59.907 13.82 59.583 13.232C59.259 12.632 58.809 12.17 58.233 11.846C57.657 11.51 57.009 11.342 56.289 11.342C55.569 11.342 54.921 11.51 54.345 11.846C53.781 12.17 53.331 12.632 52.995 13.232C52.671 13.82 52.509 14.51 52.509 15.302C52.509 16.082 52.671 16.772 52.995 17.372C53.331 17.972 53.781 18.44 54.345 18.776C54.921 19.1 55.569 19.262 56.289 19.262Z" fill="white"/>
<path d="M86.6022 2.00937L85.223 4.13159C83.4432 2.69194 80.9289 2.24565 78.975 2.64584C76.316 3.19028 74.0841 5.59247 74.195 9.06479C74.3119 12.7247 76.8664 15.3983 79.3166 17.6011C80.5416 18.7023 81.799 19.7049 82.731 20.6057C84.5711 22.2689 85.4625 25.1158 85.4625 25.1158C85.4625 25.1158 86.6605 22.2104 88.1941 20.7421C89.1556 19.829 90.4244 18.8081 91.6767 17.6694C94.1815 15.3918 96.7746 12.5896 96.6618 8.99662C96.6618 3.02455 90.7438 3.08779 88.4644 5.16386C89.4079 4.66454 90.4233 4.55854 91.3354 4.76279C93.01 5.13793 94.3965 6.51743 94.4766 9.06494C94.5528 11.5024 92.5679 13.8544 90.1743 16.0305C88.9776 17.1184 87.745 18.103 86.6917 19.1032C86.1323 19.6347 85.8743 20.1049 85.4625 20.6557C85.0505 20.0706 84.7954 19.5783 84.2333 19.035C81.531 15.9609 77.2375 12.6443 77.0659 8.99658C77.0308 5.95849 80.5866 5.15849 82.4979 6.50439L80.2555 7.73769C83.5461 8.28183 86.3466 9.56191 89.3178 11.4285L86.6022 2.00937H86.6022Z" fill="#00C437"/>
<path d="M113.608 19.5V7.728H109.072V6.9H119.062V7.728H114.526V19.5H113.608ZM124.62 19.572C123.816 19.572 123.12 19.428 122.532 19.14C121.944 18.84 121.488 18.396 121.164 17.808C120.852 17.208 120.696 16.47 120.696 15.594V10.104H121.596V15.522C121.596 16.578 121.866 17.382 122.406 17.934C122.946 18.486 123.708 18.762 124.692 18.762C125.4 18.762 126.012 18.612 126.528 18.312C127.044 18.012 127.44 17.592 127.716 17.052C127.992 16.5 128.13 15.852 128.13 15.108V10.104H129.03V19.5H128.166V16.89L128.292 17.196C128.016 17.928 127.554 18.51 126.906 18.942C126.27 19.362 125.508 19.572 124.62 19.572ZM132.846 19.5V10.104H133.71V12.678L133.62 12.39C133.884 11.634 134.328 11.052 134.952 10.644C135.576 10.236 136.356 10.032 137.292 10.032V10.914C137.256 10.914 137.22 10.914 137.184 10.914C137.148 10.902 137.112 10.896 137.076 10.896C136.032 10.896 135.216 11.226 134.628 11.886C134.04 12.534 133.746 13.44 133.746 14.604V19.5H132.846ZM139.771 19.5V10.104H140.671V19.5H139.771ZM140.221 7.818C140.017 7.818 139.843 7.746 139.699 7.602C139.555 7.458 139.483 7.29 139.483 7.098C139.483 6.894 139.555 6.72 139.699 6.576C139.843 6.432 140.017 6.36 140.221 6.36C140.437 6.36 140.611 6.432 140.743 6.576C140.887 6.708 140.959 6.876 140.959 7.08C140.959 7.284 140.887 7.458 140.743 7.602C140.611 7.746 140.437 7.818 140.221 7.818ZM146.841 19.572C146.061 19.572 145.329 19.458 144.645 19.23C143.973 19.002 143.451 18.714 143.079 18.366L143.493 17.646C143.853 17.958 144.333 18.228 144.933 18.456C145.533 18.672 146.181 18.78 146.877 18.78C147.861 18.78 148.569 18.618 149.001 18.294C149.433 17.97 149.649 17.544 149.649 17.016C149.649 16.632 149.535 16.332 149.307 16.116C149.091 15.888 148.797 15.714 148.425 15.594C148.053 15.474 147.645 15.378 147.201 15.306C146.757 15.222 146.313 15.132 145.869 15.036C145.425 14.94 145.017 14.802 144.645 14.622C144.273 14.442 143.973 14.196 143.745 13.884C143.529 13.56 143.421 13.134 143.421 12.606C143.421 12.126 143.553 11.694 143.817 11.31C144.081 10.926 144.477 10.62 145.005 10.392C145.533 10.152 146.193 10.032 146.985 10.032C147.573 10.032 148.161 10.116 148.749 10.284C149.349 10.452 149.835 10.674 150.207 10.95L149.793 11.67C149.397 11.37 148.953 11.154 148.461 11.022C147.969 10.89 147.471 10.824 146.967 10.824C146.055 10.824 145.383 10.992 144.951 11.328C144.531 11.664 144.321 12.084 144.321 12.588C144.321 12.984 144.429 13.302 144.645 13.542C144.873 13.77 145.173 13.95 145.545 14.082C145.917 14.202 146.325 14.304 146.769 14.388C147.213 14.46 147.657 14.544 148.101 14.64C148.545 14.736 148.953 14.874 149.325 15.054C149.697 15.222 149.991 15.462 150.207 15.774C150.435 16.074 150.549 16.482 150.549 16.998C150.549 17.514 150.405 17.964 150.117 18.348C149.841 18.732 149.427 19.032 148.875 19.248C148.323 19.464 147.645 19.572 146.841 19.572ZM164.76 10.032C165.516 10.032 166.17 10.182 166.722 10.482C167.286 10.77 167.724 11.214 168.036 11.814C168.348 12.402 168.504 13.134 168.504 14.01V19.5H167.604V14.082C167.604 13.026 167.346 12.222 166.83 11.67C166.314 11.118 165.594 10.842 164.67 10.842C163.962 10.842 163.35 10.992 162.834 11.292C162.318 11.592 161.922 12.012 161.646 12.552C161.37 13.092 161.232 13.74 161.232 14.496V19.5H160.332V14.082C160.332 13.026 160.074 12.222 159.558 11.67C159.042 11.118 158.322 10.842 157.398 10.842C156.69 10.842 156.078 10.992 155.562 11.292C155.046 11.592 154.65 12.012 154.374 12.552C154.098 13.092 153.96 13.74 153.96 14.496V19.5H153.06V10.104H153.924V12.696L153.798 12.408C154.074 11.676 154.536 11.1 155.184 10.68C155.832 10.248 156.612 10.032 157.524 10.032C158.46 10.032 159.246 10.272 159.882 10.752C160.53 11.22 160.938 11.922 161.106 12.858L160.8 12.732C161.052 11.928 161.526 11.28 162.222 10.788C162.918 10.284 163.764 10.032 164.76 10.032Z" fill="white"/>
</svg>
