<svg width="19" height="19" viewBox="0 0 19 19" fill="none" xmlns="http://www.w3.org/2000/svg">
<path d="M12.7408 13.0425L14.2907 11.4919C14.4995 11.2856 14.7636 11.1444 15.051 11.0855C15.3385 11.0265 15.6368 11.0522 15.9099 11.1596L17.7989 11.9141C18.0749 12.0262 18.3115 12.2175 18.479 12.4638C18.6464 12.7102 18.7373 13.0007 18.74 13.2986V16.7598C18.7384 16.9624 18.6958 17.1627 18.6148 17.3485C18.5338 17.5342 18.416 17.7017 18.2686 17.8407C18.1213 17.9798 17.9472 18.0876 17.7571 18.1576C17.567 18.2276 17.3647 18.2583 17.1623 18.2481C3.92527 17.4243 1.25433 6.21015 0.749205 1.91831C0.725757 1.70755 0.747181 1.49421 0.812068 1.29233C0.876955 1.09045 0.983834 0.904598 1.12567 0.747007C1.26751 0.589416 1.4411 0.463655 1.63501 0.377997C1.82893 0.292339 2.03877 0.248727 2.25074 0.250028H5.59288C5.89112 0.250911 6.18227 0.341034 6.42889 0.508805C6.67552 0.676576 6.86633 0.914322 6.97678 1.19146L7.73101 3.08126C7.8419 3.35335 7.87019 3.6521 7.81235 3.94019C7.75451 4.22827 7.61311 4.49292 7.4058 4.70108L5.85582 6.25168C5.85582 6.25168 6.74844 12.2949 12.7408 13.0425Z" fill="black"/>
</svg>
