<svg width="23" height="24" viewBox="0 0 23 24" fill="none" xmlns="http://www.w3.org/2000/svg">
<path d="M12.6022 0.0093689L11.223 2.13159C9.44316 0.691937 6.92891 0.245648 4.975 0.645843C2.31597 1.19028 0.0840812 3.59247 0.19497 7.06479C0.311864 10.7247 2.86636 13.3983 5.31655 15.6011C6.54165 16.7023 7.79897 17.7049 8.73101 18.6057C10.5711 20.2689 11.4625 23.1158 11.4625 23.1158C11.4625 23.1158 12.6605 20.2104 14.1941 18.7421C15.1556 17.829 16.4244 16.8081 17.6767 15.6694C20.1815 13.3918 22.7746 10.5896 22.6618 6.99662C22.6618 1.02455 16.7438 1.08779 14.4644 3.16386C15.4079 2.66454 16.4233 2.55854 17.3354 2.76279C19.01 3.13793 20.3965 4.51743 20.4766 7.06494C20.5528 9.50244 18.5679 11.8544 16.1743 14.0305C14.9776 15.1184 13.745 16.103 12.6917 17.1032C12.1323 17.6347 11.8743 18.1049 11.4625 18.6557C11.0505 18.0706 10.7954 17.5783 10.2333 17.035C7.53101 13.9609 3.2375 10.6443 3.06592 6.99658C3.03076 3.95849 6.58657 3.15849 8.49785 4.50439L6.25547 5.73769C9.54614 6.28183 12.3466 7.56191 15.3178 9.42851L12.6022 0.0093689H12.6022Z" fill="#00C437"/>
</svg>
